inDegrees=no
num_controls=7
num_derivatives=13
num_iterations=139
num_multipliers=7
num_parameters=0
num_slacks=7
num_states=26
objective=5.227294
objective_accelerations=0.485959
objective_balance=0.054310
objective_effort=0.244414
objective_height=4.356729
objective_ligament=0.085882
solver_duration=1540.021225
status=Solve_Succeeded
success=true
DataType=double
version=3
OpenSimVersion=4.4-2022-07-23-0e9fedc
endheader
time	/jointset/ground_pelvis/pelvis_tilt/value	/jointset/ground_pelvis/pelvis_tx/value	/jointset/ground_pelvis/pelvis_ty/value	/jointset/hip_l/hip_flexion_l/value	/jointset/hip_l/hip_adduction_l/value	/jointset/hip_l/hip_rotation_l/value	/jointset/back/lumbar_extension/value	/jointset/patellofemoral_l/patellar_flexion_l/value	/jointset/knee_l/knee_flexion_l/value	/jointset/knee_l/knee_adduction_l/value	/jointset/knee_l/knee_rotation_l/value	/jointset/ankle_l/ankle_angle_l/value	/jointset/subtalar_l/subtalar_angle_l/value	/jointset/ground_pelvis/pelvis_tilt/speed	/jointset/ground_pelvis/pelvis_tx/speed	/jointset/ground_pelvis/pelvis_ty/speed	/jointset/hip_l/hip_flexion_l/speed	/jointset/hip_l/hip_adduction_l/speed	/jointset/hip_l/hip_rotation_l/speed	/jointset/back/lumbar_extension/speed	/jointset/patellofemoral_l/patellar_flexion_l/speed	/jointset/knee_l/knee_flexion_l/speed	/jointset/knee_l/knee_adduction_l/speed	/jointset/knee_l/knee_rotation_l/speed	/jointset/ankle_l/ankle_angle_l/speed	/jointset/subtalar_l/subtalar_angle_l/speed	/forceset/tau_hip_flexion_l	/forceset/tau_hip_adduction_l	/forceset/tau_hip_rotation_l	/forceset/tau_knee_flexion_l	/forceset/tau_ankle_angle_l	/forceset/tau_subtalar_angle_l	/forceset/tau_lumbar_extension	lambda_cid13_p0	lambda_cid13_p1	lambda_cid13_p2	lambda_cid13_p3	lambda_cid13_p4	lambda_cid13_p5	lambda_cid14_p0	/jointset/ground_pelvis/pelvis_tilt/accel	/jointset/ground_pelvis/pelvis_tx/accel	/jointset/ground_pelvis/pelvis_ty/accel	/jointset/hip_l/hip_flexion_l/accel	/jointset/hip_l/hip_adduction_l/accel	/jointset/hip_l/hip_rotation_l/accel	/jointset/back/lumbar_extension/accel	/jointset/patellofemoral_l/patellar_flexion_l/accel	/jointset/knee_l/knee_flexion_l/accel	/jointset/knee_l/knee_adduction_l/accel	/jointset/knee_l/knee_rotation_l/accel	/jointset/ankle_l/ankle_angle_l/accel	/jointset/subtalar_l/subtalar_angle_l/accel	gamma_cid13_p0	gamma_cid13_p1	gamma_cid13_p2	gamma_cid13_p3	gamma_cid13_p4	gamma_cid13_p5	gamma_cid14_p0
1.5	-0.3822694057740946	-0.02188760587047491	0.7925672031786359	0.9964803980790142	-0.4280577844806941	-0.2934953507332463	-0.2203800741146889	0.6242716636802866	0.6242716636803531	-0.1656949119105359	-0.1646952070399484	0.04575215445655403	-0.05461718802572722	0.7286743928699905	0.3012432529912024	0.3926303595788178	-2.15745590945933	0.2209519548751037	-0.629729225569254	0.326307662369438	-1.523167111654067	-1.523167111654002	-0.0206807751169821	0.062219952150689	-0.1978428223608305	0.15180461834037	-0.1825828718879931	0.03648311480231799	-0.004264757685173438	-0.155725957781418	0.03528989380186338	0.04592952715013587	0.1727370745855848	-21.84903312691013	-19.87803380075306	7.123951604000213	-4.230270483566501	-527.209199202046	-63.73622558135347	-33.71321760697312	0.497144163868387	0.554132355296586	-0.3248480170649046	-1.173865350554409	0.5851804030282113	-0.1035837126272644	1.341231784804175	-1.054865062034842	-1.054865062034853	-0.004666579030762501	0.2004545370899086	-0.1736842547116009	0.5303968291226044	3.915094034428416e-08	8.807708419875697e-07	1.960840169003414e-08	2.289324470714497e-07	1.308344712543809e-07	-1.070629099448089e-08	1.333662423008765e-07
1.51	-0.3749581558889924	-0.01884778939515929	0.7964764696832786	0.9748491489101081	-0.4258198871448736	-0.2997984879630011	-0.2170510317689329	0.6089894804917821	0.6089894804918894	-0.1659026467382729	-0.1640649130294806	0.04376522618176953	-0.05307352029235542	0.7334728616863317	0.3066797623587725	0.389141596158061	-2.16848529866814	0.2266037274811546	-0.6308138491836346	0.3394575658928984	-1.533052843018316	-1.533052843018286	-0.02086472191702117	0.06382903930182397	-0.1995086919827972	0.1569174115663557	-0.1765094081351387	0.03529760283065135	-0.004337665960145897	-0.1540844087352212	0.03515965886523784	0.04471869828126162	0.1679026478052519	-21.72521129322991	-19.42793079163151	7.113964735279586	-4.027953247131674	-524.1197763311472	-63.8299274580654	-34.33083802404362	0.4557706108050292	0.5324167269772448	-0.3730652394557817	-1.021200749189245	0.5514632096307803	-0.09813909815908063	1.295383502484492	-0.9229515641876708	-0.9229515641928315	-0.02486815896529493	0.1396263831567739	-0.1578953368551692	0.4998403844267598	3.354266665338888e-08	9.17759618103365e-07	3.089398150850018e-08	2.3774417445215e-07	1.337287809665415e-07	-1.616584929747245e-09	1.339331923222654e-07
1.52	-0.3676020068416687	-0.01575480652627008	0.8003484136067387	0.9531168608404839	-0.4235262145789404	-0.3061099189113707	-0.2135917876146695	0.5936149351115236	0.5936149351116699	-0.1661121429196977	-0.1634188300316962	0.04176266780658119	-0.05147910066370538	0.7376542253142022	0.3118765317059227	0.3851658433423133	-2.177663689602742	0.2321070008966979	-0.6313879692906414	0.352348024071063	-1.541639550005274	-1.541639550005278	-0.02103304585605008	0.06537774961421532	-0.2009688424414036	0.1619549973959493	-0.170435944382313	0.03411209085896618	-0.004410574235098792	-0.1524428596890324	0.0350294239286061	0.04350786941236317	0.1630682210249026	-21.61055427890188	-18.97755926676466	7.10546153261161	-3.813466825598835	-521.164668162582	-63.95525366779981	-34.93235322974248	0.3737231261742431	0.5061843512125214	-0.4222458960631087	-0.8036656957125556	0.5554805649266809	-0.001483011152474843	1.289342715744877	-0.7950601865766148	-0.7950601865766284	-0.001542006828716738	0.1883791693411629	-0.1325404220396201	0.5153553498441065	3.349547772527246e-08	9.430739447578986e-07	1.708441793918603e-08	2.406235781554256e-07	1.431977557898518e-07	8.569192870711271e-09	1.367462768761955e-07
1.53	-0.3602071245748651	-0.01261110700869506	0.8041782188434863	0.9313019961647073	-0.4211783347291243	-0.3124244849776956	-0.2100051165345261	0.5781610163661784	0.5781610163663278	-0.1663234233357589	-0.1627575186274043	0.03974652150817135	-0.0498347768946727	0.7412146872907162	0.3168172804675303	0.3807182622771739	-2.184992159886896	0.2374393929102957	-0.6314409304981382	0.3649299921647346	-1.548919353750053	-1.548919353750095	-0.0212219728722883	0.06687377741597413	-0.2022242665501368	0.1668933659136538	-0.1642780667360995	0.03273663828931413	-0.004520703128067592	-0.1508624487530236	0.03500931907437174	0.04224357691399953	0.1581390085108478	-21.4639619729701	-18.51057735282161	7.095471812374349	-3.594289700407568	-518.2210486056971	-64.06497106526322	-35.51472002422934	0.3310572724107612	0.4811535105585683	-0.4675217790588399	-0.6498932708337748	0.5175415751486735	0.005561384818770553	1.234193886932545	-0.6607426170271903	-0.6607426170328126	-0.02723955709871666	0.1285465927715175	-0.1165998068945502	0.480471855170413	3.935694135760851e-08	9.559841688598416e-07	-2.338873547964427e-08	2.371998879514376e-07	1.596523122937585e-07	1.991954689037746e-08	1.419458793709507e-07
1.54	-0.3527798677804919	-0.009419373329119306	0.8079612467561186	0.909423355670876	-0.4187780463480532	-0.3187370278440292	-0.2062943117672957	0.5626410391536644	0.56264103915382	-0.1665365273235843	-0.1620815805436665	0.03771890968835239	-0.04814159058997532	0.7441291308280717	0.321483364106068	0.3758103785192731	-2.190418853213721	0.2425887071467897	-0.6309833292909547	0.3771747614885814	-1.554851243438776	-1.554851243438856	-0.02139776021161809	0.06830308550486137	-0.203261946723046	0.1717275045288303	-0.1581201890899042	0.03136118571964466	-0.004630832020984652	-0.1492820378170262	0.0349892142201304	0.04097928441561215	0.1532097959967862	-21.32640902018294	-18.04327640355414	7.086874998812641	-3.363829217370348	-515.4078648097969	-64.20711921708872	-36.07488748263275	0.2445194383426324	0.4512513265984688	-0.5143064346154482	-0.4233103042463425	0.5188650095059174	0.100629471783602	1.221902961779814	-0.5254773753654789	-0.5254773753654592	0.001085928552983511	0.1750352267668291	-0.08899163487489775	0.4945093693384843	3.91018644140532e-08	9.738516813389132e-07	-3.896397610919596e-08	2.376828930086232e-07	1.689691633506078e-07	3.048439681357092e-08	1.437318858204761e-07
1.55	-0.3453267208474953	-0.006182415722208794	0.8116929438953494	0.8875000185993978	-0.416327216918911	-0.3250425325515993	-0.2024628909697961	0.5470685686807391	0.5470685686808565	-0.1667512976939856	-0.161391754397425	0.03568202637216811	-0.04640060939609456	0.7463882905509586	0.3258552657029904	0.3704569009238559	-2.193921017952282	0.2475412359964383	-0.6300323066886884	0.389039635360344	-1.559407950845065	-1.559407950845098	-0.02155620037475923	0.06965003282392372	-0.2040772715634084	0.1764465035902647	-0.1519171817260251	0.02987208148228267	-0.004774801530519064	-0.1477177407118969	0.03503151828698144	0.03962869448391961	0.1482154464323714	-21.17468743932176	-17.54156671851377	7.073465389265824	-3.107111391708169	-512.6312245480149	-64.29512700396874	-36.60971915206247	0.1997957617872462	0.4222749272639011	-0.5566565486650629	-0.2645609931369187	0.4779048364997172	0.1052488651156675	1.158315201901651	-0.3855604562931095	-0.3855604562860265	-0.02411437999163756	0.1126553866349563	-0.07216575954074303	0.4571030567181822	3.179946898088433e-08	9.974308521655455e-07	-2.585249113371079e-08	2.426670904319434e-07	1.700621363923694e-07	4.014420940821978e-08	1.415848359570198e-07
1.56	-0.337854346012765	-0.002903316029124183	0.8153689486332942	0.8655514815936395	-0.4138279705985067	-0.3313359449910191	-0.1985149143131737	0.531457572527146	0.5314575725272255	-0.1669676135442671	-0.1606888325975567	0.03363811723739477	-0.04461313663516474	0.7479747111748763	0.3299117813408873	0.3646718982620698	-2.195458840069872	0.2522720853983035	-0.6285648756597223	0.4004859333131997	-1.562556379572651	-1.562556379572637	-0.02170685618765732	0.07092221622934351	-0.2046671104407252	0.1810258179385897	-0.145714174362152	0.02838297724490579	-0.00491877104007044	-0.1461534436067674	0.03507382235382719	0.03827810455220785	0.1432210968679593	-21.03279026332419	-17.03921168988793	7.061180999543904	-2.835000594980808	-509.9928610114623	-64.41535434962402	-37.11612704477695	0.1099716185488745	0.3881741347932847	-0.600611447889273	-0.03044178005194851	0.4745291199492222	0.2039111571235493	1.138187777998315	-0.2438216396247259	-0.243821639624727	0.002642798601608237	0.1600824440382884	-0.04389444226587227	0.4665724267165526	3.131241069190613e-08	1.004165348677104e-06	-3.675710851971926e-08	2.387517310036728e-07	1.828447588903339e-07	5.040944700272687e-08	1.410064119071157e-07
1.57	-0.3303694768689652	0.0004147112877192061	0.8189850228098566	0.8435973336140834	-0.4112825670947831	-0.3376120084461283	-0.1944547468749863	0.5158220546899207	0.5158220546900363	-0.1671855300431123	-0.1599734296115506	0.03158938424177155	-0.04278063987704776	0.7488819496069581	0.3336346866258691	0.3584764577732124	-2.195032556728365	0.2567670824340068	-0.6265648271312306	0.4114656210679048	-1.564301965402981	-1.564301965402995	-0.02187325450957574	0.07214276793236742	-0.2050398219413605	0.1854468857569324	-0.1394744690933037	0.02677036970888719	-0.005103635484330488	-0.1446606099160031	0.03524607201118873	0.03684725486436873	0.1381759605262225	-20.85884177626082	-16.50814212744045	7.04492406688415	-2.554641110521845	-507.4512018475058	-64.49153327389122	-37.59176372847687	0.06350153774800475	0.3555424253659032	-0.6389370386056623	0.1298719535005039	0.430615398221726	0.2106190844538076	1.065569285415682	-0.1031723211236905	-0.1031723211279445	-0.02563651160562206	0.1006324072350677	-0.0279902815426149	0.425733413023919	3.934452383316617e-08	9.89844002294821e-07	-7.768185385759449e-08	2.237119255109136e-07	2.102394432085521e-07	6.143146584705675e-08	1.423887701241519e-07
1.58	-0.3228790550244033	0.003768206397415388	0.8225371572436866	0.8216575901803936	-0.4086934875401301	-0.3438655579392086	-0.1902872405570101	0.5001764319411193	0.5001764319412667	-0.1674049815979927	-0.1592463029337385	0.02953811797562554	-0.04090476055002098	0.7490852513274556	0.3370053399114459	0.3518839497155491	-2.192577930896917	0.2610072955833444	-0.6240620832530654	0.4219537092709807	-1.564577361888771	-1.564577361888813	-0.02201386739217432	0.07326695458741261	-0.205173764545207	0.189702331720507	-0.1332347638244437	0.02515776217285801	-0.00528849992867234	-0.1431677762252258	0.03541832166854755	0.0354164051765173	0.1331308241845011	-20.69274560433423	-15.97657605595798	7.02959175203766	-2.267234309249698	-505.0182017910144	-64.59540493225575	-38.03906870443893	-0.0308157237679254	0.3177237349121901	-0.6800249616504677	0.3752267179359704	0.4235723426761095	0.3044502270582474	1.039867867672412	0.05021622928348556	0.05021622928348562	0.00779988646559376	0.1408094344425232	0.003859337091807049	0.4334480557628874	4.678392974367721e-08	9.723237553498645e-07	-1.156629877544008e-07	2.085479658767578e-07	2.371460169189934e-07	7.232506628931236e-08	1.429964875228877e-07
1.59	-0.3153901194634217	0.007153582182290437	0.8260214653458505	0.799752473720757	-0.4060633214507023	-0.3500914287083892	-0.1860175049439751	0.4845353074616598	0.4845353074617003	-0.1676258570974187	-0.1585082357518471	0.02748663699803486	-0.03898723335339666	0.748580173704647	0.3400043202494343	0.3449176578720323	-2.188097971928592	0.2649774711651023	-0.6210272268001976	0.4318976572966521	-1.563394021279243	-1.563394021279257	-0.02215994765319098	0.07433052413437057	-0.205082619416749	0.193769446305484	-0.1269748300919183	0.02339026199434845	-0.005514072128608825	-0.1417896986676266	0.03568629065256741	0.03395428255713208	0.1280498183418044	-20.5091692650322	-15.43434537594753	7.01239487764021	-1.954627484537261	-502.7480716263296	-64.70219760271726	-38.45820267020552	-0.07862949036436177	0.2811974765051399	-0.7138774164271382	0.5364692259787714	0.3763444619799292	0.3158507905948287	0.9572948637633278	0.1903914278131688	0.1903914278174268	-0.02546634299908335	0.08665876563296848	0.01773173202383793	0.3881655410294669	5.341894726960037e-08	9.504621433555653e-07	-1.496492204097567e-07	1.932155113364207e-07	2.633901548045949e-07	8.304438461446716e-08	1.425529066682159e-07
